/vscmnt/brussel_pixiu_data/_data_brussel/112/vsc11236/PredSimResults/SUBJ11opt3D/expIG/worker_13.mot
version=1
nRows=11
nColumns=50
inDegrees=yes
endheader
                time	         pelvis_tilt	         pelvis_list	     pelvis_rotation	           pelvis_tx	           pelvis_ty	           pelvis_tz	       hip_flexion_r	     hip_adduction_r	      hip_rotation_r	        knee_angle_r	       ankle_angle_r	         mtp_angle_r	       hip_flexion_l	     hip_adduction_l	      hip_rotation_l	        knee_angle_l	       ankle_angle_l	         mtp_angle_l	    lumbar_extension	      lumbar_bending	     lumbar_rotation	 ercspn_r/activation	 intobl_r/activation	 extobl_r/activation	    abd_r/activation	    add_r/activation	hamstrings_r/activation	bifemsh_r/activation	glut_max_r/activation	iliopsoas_r/activation	rect_fem_r/activation	  vasti_r/activation	gastroc_r/activation	 soleus_r/activation	tib_ant_r/activation	 ercspn_l/activation	 intobl_l/activation	 extobl_l/activation	    abd_l/activation	    add_l/activation	hamstrings_l/activation	bifemsh_l/activation	glut_max_l/activation	iliopsoas_l/activation	rect_fem_l/activation	  vasti_l/activation	gastroc_l/activation	 soleus_l/activation	tib_ant_l/activation	
          1.47876096	         -8.66963120	          4.66283643	         -8.86864562	          2.66176973	          0.91898602	          0.00590537	        -13.87467483	         -5.98424249	          1.78030642	        -12.80340999	          5.09672628	         41.86993261	         39.01895761	          0.22104812	         -8.62220195	         -9.47794763	          4.42276277	          0.35657358	        -10.79670548	         -3.74816207	          4.43417644	          0.04230239	          0.01000102	          0.01000486	          0.02142093	          0.18856218	          0.02491154	          0.30014362	          0.01837680	          0.69710105	          0.01000354	          0.01164250	          0.18716713	          0.25546808	          0.01427951	          0.09728270	          0.19090577	          0.01354558	          0.02025934	          0.45227108	          0.12176507	          0.30910654	          0.20401179	          0.13826034	          0.02320725	          0.01000069	          0.01578963	          0.01072048	          0.70615836	
          1.48861937	         -8.61349134	          4.71883282	         -8.96322173	          2.68390900	          0.91659695	          0.00540575	        -14.15924740	         -6.21823437	          1.42848143	        -14.56425711	          3.62504367	         43.92025073	         38.99606939	          0.35266594	         -8.79572171	        -11.57739344	          3.47870434	          0.30441147	        -10.30237968	         -3.99516121	          4.64940026	          0.10869278	          0.01000218	          0.01000178	          0.01839804	          0.26988668	          0.02139636	          0.25783420	          0.01578352	          0.81722209	          0.01000168	          0.01000073	          0.16075421	          0.21941658	          0.01226444	          0.08355673	          0.26035970	          0.01163441	          0.09018769	          0.50533092	          0.10458315	          0.26548583	          0.33492527	          0.11874911	          0.01993426	          0.01000068	          0.01356170	          0.01164319	          0.82268980	
          1.49847778	         -8.53542154	          4.75888233	         -8.99699847	          2.70595515	          0.91445543	          0.00484272	        -14.01568669	         -6.41888756	          1.06862230	        -17.11256517	          2.21558431	         45.55513365	         38.85021523	          0.47653686	         -8.87898440	        -13.69139820	          2.87359548	          0.23541326	         -9.84829843	         -4.23229904	          4.81472351	          0.12193821	          0.01000050	          0.01000771	          0.01580174	          0.23180398	          0.01837710	          0.22145386	          0.01355620	          0.87543952	          0.01000141	          0.01000023	          0.13806868	          0.18845261	          0.01053380	          0.09454333	          0.22361937	          0.01000072	          0.20876872	          0.49536414	          0.08982475	          0.22802085	          0.41658532	          0.10199130	          0.01712345	          0.01000081	          0.01164807	          0.01000040	          0.89300760	
          1.50833618	         -8.43687750	          4.79799651	         -8.96493806	          2.72756691	          0.91279742	          0.00418455	        -13.34329750	         -6.61053607	          0.71820738	        -20.58030281	          0.92750059	         46.40024897	         38.72426671	          0.62407430	         -8.95286884	        -15.79914937	          2.12076281	          0.19018657	         -9.47628868	         -4.48012646	          4.91787656	          0.17096946	          0.01000071	          0.01000172	          0.01357183	          0.22698171	          0.01578392	          0.19020680	          0.01164322	          0.75189916	          0.01000127	          0.01000017	          0.11858452	          0.16185825	          0.01000029	          0.13204940	          0.19206312	          0.01000114	          0.23609689	          0.48893903	          0.07714907	          0.19584292	          0.43492903	          0.08759834	          0.01471015	          0.04517547	          0.01000466	          0.01000037	          0.93543863	
          1.51819459	         -8.31837137	          4.84543380	         -8.87649108	          2.74865355	          0.91171895	          0.00346479	        -12.15770735	         -6.81170838	          0.40374648	        -24.86179631	         -0.45944504	         46.50814290	         38.66363631	          0.79574428	         -9.00594715	        -18.01346803	          1.50068387	          0.10516625	         -9.18951362	         -4.75289523	          4.96074210	          0.25461774	          0.01000054	          0.01000141	          0.01165661	          0.24814953	          0.01355670	          0.16443255	          0.01000028	          0.64579157	          0.01000109	          0.01000009	          0.10184997	          0.13901687	          0.01000041	          0.11341655	          0.16495993	          0.01000072	          0.27243780	          0.43059759	          0.06626267	          0.16820595	          0.42845455	          0.07523652	          0.01263916	          0.20312158	          0.01000103	          0.01000038	          0.96104216	
          1.52805299	         -8.18741763	          4.89644947	         -8.73294969	          2.76918084	          0.91137110	          0.00271441	        -10.50966712	         -7.01830905	          0.13408853	        -29.75810092	         -2.17146034	         45.86081976	         38.54559245	          1.00880738	         -9.00371436	        -20.16699506	          1.31615570	          0.01082080	         -8.98152602	         -5.04384016	          4.94389892	          0.24562445	          0.01000058	          0.01000223	          0.01001169	          0.24730844	          0.01164390	          0.17783317	          0.01000015	          0.55465773	          0.01000081	          0.01000007	          0.08747699	          0.11939886	          0.01000026	          0.09741168	          0.14168135	          0.01000078	          0.30945887	          0.36983367	          0.05691431	          0.14446916	          0.36799533	          0.06461919	          0.01086359	          0.30761864	          0.01000100	          0.01000030	          0.97648942	
          1.53791140	         -8.05457207	          4.94316292	         -8.53595063	          2.78908136	          0.91187805	          0.00197515	         -8.45329788	         -7.21710692	         -0.07567394	        -35.05341182	         -4.33167515	         44.34650335	         38.26714443	          1.27872142	         -8.90049255	        -22.08903459	          1.71704585	         -0.06712331	         -8.85105131	         -5.34571214	          4.86877445	          0.26403295	          0.01000052	          0.03379111	          0.01000014	          0.26868748	          0.01000170	          0.15279535	          0.01000014	          0.47638466	          0.01000103	          0.01000006	          0.07513235	          0.10254933	          0.02200850	          0.08366523	          0.12168769	          0.01000084	          0.34661210	          0.31764370	          0.05083103	          0.12408213	          0.31606447	          0.05550018	          0.01001731	          0.44472872	          0.01000109	          0.01000032	          0.83868843	
          1.54776981	         -7.92996330	          4.97336103	         -8.28454363	          2.80827374	          0.91334380	          0.00128921	         -6.06678398	         -7.37335883	         -0.17186387	        -40.53854632	         -6.66137708	         41.42858722	         37.73213176	          1.60307362	         -8.69926222	        -23.57916472	          2.63325801	         -0.05115633	         -8.80242625	         -5.64555741	          4.73830640	          0.25135741	          0.04560787	          0.13388743	          0.01000032	          0.24754045	          0.01000183	          0.13124055	          0.01000030	          0.40915747	          0.12145725	          0.01000008	          0.06452981	          0.08807760	          0.25401279	          0.07185861	          0.10451547	          0.01000096	          0.32836564	          0.27281869	          0.04380858	          0.10657213	          0.27146180	          0.04766804	          0.01001417	          0.48656493	          0.01000203	          0.01000059	          0.72033318	
          1.55762821	         -7.82062314	          5.00254864	         -7.98357709	          2.82665950	          0.91572952	          0.00069524	         -3.47780076	         -7.43645124	         -0.07151132	        -46.00992263	         -8.26010394	         36.74375001	         36.94451973	          1.97864108	         -8.44067333	        -24.57948009	          3.83879668	          0.09912493	         -8.84490133	         -5.95856174	          4.55855409	          0.21588686	          0.09473775	          0.18084589	          0.01000024	          0.21261373	          0.01000103	          0.16213718	          0.01000021	          0.35141740	          0.23771127	          0.01000006	          0.06434519	          0.07564813	          0.30150243	          0.06171817	          0.08976676	          0.01000088	          0.28202828	          0.23431941	          0.03975627	          0.09153312	          0.23315343	          0.04094117	          0.01001346	          0.48211617	          0.01000210	          0.01000053	          0.61868013	
          1.56748662	         -7.72970197	          5.02636791	         -7.64031900	          2.84427350	          0.91890468	          0.00020767	         -0.82783450	         -7.34829472	          0.19485528	        -51.19240486	         -8.30137300	         32.30364493	         35.93620823	          2.38282731	         -8.14024246	        -25.08059148	          4.98714495	          0.33446883	         -8.97827586	         -6.27212161	          4.33784427	          0.18542124	          0.12904994	          0.19358695	          0.01000016	          0.19596893	          0.01000081	          0.18183315	          0.01000016	          0.30182564	          0.34259403	          0.01000006	          0.05934921	          0.06497269	          0.34453710	          0.05300877	          0.07710013	          0.01000123	          0.24222892	          0.20125472	          0.05991514	          0.07861637	          0.20025120	          0.03516359	          0.01000805	          0.47043437	          0.01000178	          0.01000045	          0.53137244	
          1.57734503	         -7.65837382	          5.01230300	         -7.27066652	          2.86124221	          0.92277819	         -0.00020989	          1.83785935	         -7.11182002	          0.51889955	        -55.89546976	         -7.66965094	         28.49519695	         34.72304161	          2.77127117	         -7.79473602	        -25.10286840	          5.93031773	          0.59268767	         -9.19375066	         -6.53540064	          4.09668420	          0.15925482	          0.14750983	          0.20947130	          0.01000017	          0.18494046	          0.01000132	          0.22832303	          0.01000018	          0.25923234	          0.43509961	          0.01000007	          0.05097426	          0.05580377	          0.35003559	          0.04552843	          0.06628146	          0.01001503	          0.20804591	          0.24318329	          0.07654237	          0.06752236	          0.17199234	          0.03020134	          0.01000415	          0.40404824	          0.01000165	          0.01000046	          0.45638599	
